<?xml version="1.0" standalone="no"?>
<!DOCTYPE svg PUBLIC "-//W3C//DTD SVG 20010904//EN"
 "http://www.w3.org/TR/2001/REC-SVG-20010904/DTD/svg10.dtd">
<svg version="1.0" xmlns="http://www.w3.org/2000/svg"
 width="529.000000pt" height="529.000000pt" viewBox="0 0 529.000000 529.000000"
 preserveAspectRatio="xMidYMid meet">
<metadata>
Created by potrace 1.11, written by Peter Selinger 2001-2013
</metadata>
<g transform="translate(0.000000,529.000000) scale(0.100000,-0.100000)"
fill="#000000" stroke="none">
<path d="M3320 5180 c-6 -12 -80 -126 -164 -253 -84 -128 -229 -349 -323 -492
-93 -143 -221 -339 -285 -435 -63 -96 -144 -220 -180 -275 -36 -55 -132 -201
-213 -325 -151 -229 -253 -385 -387 -590 -171 -263 -314 -479 -359 -547 -27
-40 -49 -77 -49 -82 0 -5 -4 -11 -8 -13 -6 -2 -171 -250 -222 -333 -14 -24
-171 -263 -428 -652 -67 -102 -122 -187 -122 -190 0 -2 -5 -9 -10 -16 -10 -11
-102 -152 -358 -542 -39 -60 -76 -117 -81 -125 -6 -8 -26 -39 -45 -68 l-35
-52 816 2 816 3 234 415 c129 228 238 424 243 435 6 11 14 27 20 35 10 15 234
412 293 520 16 30 68 122 115 204 46 83 106 188 132 235 26 48 56 102 67 121
204 357 463 824 463 832 0 6 2 9 4 7 6 -6 31 -151 56 -329 15 -103 20 -141 30
-200 12 -73 20 -127 26 -170 2 -19 8 -60 14 -90 5 -30 11 -71 14 -90 28 -198
48 -324 50 -329 2 -3 7 -35 10 -70 4 -36 8 -67 10 -70 2 -3 6 -28 10 -56 3
-27 8 -61 10 -75 3 -14 10 -61 16 -105 11 -77 15 -102 24 -162 3 -16 7 -48 11
-73 3 -25 8 -58 11 -73 3 -16 7 -38 9 -50 4 -37 36 -251 41 -277 4 -26 9 -55
19 -125 18 -124 25 -172 29 -190 2 -11 7 -42 10 -70 4 -27 11 -77 17 -109 6
-33 11 -68 12 -78 1 -17 31 -18 728 -18 l727 0 -28 75 c-15 41 -26 75 -24 75
3 0 -2 10 -10 22 -8 13 -17 39 -21 58 -4 19 -11 40 -14 45 -4 6 -18 39 -30 75
-24 68 -69 194 -78 220 -4 8 -7 17 -8 20 -1 3 -4 12 -8 20 -3 8 -28 78 -55
155 -171 481 -266 743 -297 825 -8 19 -39 107 -70 195 -32 88 -75 210 -97 270
-22 61 -44 121 -48 135 -5 14 -32 88 -60 165 -28 77 -56 156 -62 175 -5 19
-16 49 -23 65 -8 17 -41 109 -75 205 -35 96 -78 218 -97 270 -33 90 -73 202
-177 495 -25 72 -50 139 -56 150 -5 11 -16 40 -24 65 -8 25 -44 128 -81 230
-37 102 -98 273 -137 380 -38 107 -78 218 -88 245 -10 28 -44 122 -76 210 -31
88 -58 162 -60 163 -1 2 -8 -6 -14 -18z"/>
</g>
</svg>
